<svg display="none" xmlns="http://www.w3.org/2000/svg" xmlns:xlink="http://www.w3.org/1999/xlink">
    <symbol id="school1" width="75" height="75" viewBox="0 0 75 75">
        <g>
            <path d="M5.10913 13.5329C8.53922 12.1524 11.7684 10.8475 15.0027 9.551C22.2763 6.63386 29.5483 3.71168 36.8321 0.823089C37.2204 0.668582 37.7745 0.656827 38.1596 0.809653C48.4197 4.89399 58.6698 9.00855 68.9199 13.1198C69.1961 13.2306 69.464 13.3566 69.9377 13.5631C66.6734 14.8781 63.5931 16.1192 60.302 17.4442C61.2327 17.8137 61.9492 18.1362 62.6908 18.3814C63.1763 18.5409 63.3152 18.8113 63.2985 19.3C63.265 20.3261 63.2885 21.3556 63.2885 22.4136C62.4866 22.4136 61.7735 22.4136 60.9415 22.4136C60.9415 21.898 60.9113 21.3757 60.9498 20.8568C60.985 20.3849 60.8075 20.1599 60.3639 20.0053C59.3428 19.6493 58.3417 19.2379 57.0929 18.7575C58.2011 18.289 59.1 17.9078 60.2015 17.4426C52.7136 14.5792 45.3897 11.7779 37.952 8.93466C37.659 9.67024 37.3878 10.3521 37.0848 11.1129C43.6839 13.637 50.2092 16.1343 56.9623 18.7172C56.527 18.9171 56.2977 19.033 56.06 19.1287C50.082 21.5303 44.1057 23.9369 38.1177 26.3132C37.7745 26.4493 37.284 26.4593 36.9425 26.3233C26.5786 22.1953 16.2264 18.0404 5.87249 13.8889C5.67328 13.8083 5.48411 13.7075 5.10913 13.5329Z"/>
            <path d="M73.2004 60.5816C73.2004 63.3527 73.2004 66.0532 73.2004 68.8158C72.874 68.8158 72.5978 68.8158 72.3233 68.8158C51.6774 68.8158 31.0316 68.8158 10.3841 68.8158C8.14588 68.8158 6.60242 67.7595 6.03659 65.8533C5.2883 63.3342 7.09291 60.7597 9.72449 60.5917C9.97392 60.5749 10.2267 60.5816 10.4778 60.5816C31.0684 60.5816 51.659 60.5816 72.2496 60.5816C72.5509 60.5816 72.8522 60.5816 73.2004 60.5816Z"/>
            <path d="M41.2431 74.6954C30.8357 74.6954 20.4282 74.7088 10.0191 74.6904C4.31397 74.6803 -0.112175 70.1156 0.00165888 64.4224C0.105449 59.1944 4.44287 54.8212 9.6558 54.7137C11.3566 54.6785 13.0591 54.7037 14.7616 54.7037C33.9862 54.7037 53.2125 54.7037 72.437 54.7037C72.7434 54.7037 73.0531 54.6869 73.3578 54.7171C74.3203 54.8095 75.0201 55.5854 75 56.5124C74.9799 57.4075 74.2885 58.1364 73.3594 58.222C73.0548 58.2506 72.7467 58.2338 72.4387 58.2338C51.7343 58.2338 31.0315 58.2321 10.3271 58.2355C6.36298 58.2355 3.44849 61.0821 3.52215 64.8557C3.58744 68.2011 6.29769 70.9973 9.62902 71.1535C9.99061 71.1703 10.3539 71.1653 10.7171 71.1653C31.281 71.1653 51.8464 71.1653 72.4103 71.167C72.7451 71.167 73.0832 71.1468 73.413 71.1854C74.332 71.2912 75.0067 72.0554 75 72.9471C74.9933 73.8423 74.3086 74.5879 73.3862 74.682C73.0815 74.7122 72.7735 74.6971 72.4655 74.6971C62.0597 74.6954 51.6523 74.6954 41.2431 74.6954Z"/>
            <path d="M56.2558 21.6091C56.2558 25.282 56.2675 28.8356 56.2357 32.3892C56.2323 32.705 56.013 33.0761 55.7887 33.3247C53.9406 35.3652 51.6103 36.7003 49.0507 37.5551C41.3703 40.1213 33.6513 40.1145 25.9675 37.5568C23.6758 36.7943 21.6 35.5868 19.7954 33.9444C19.0856 33.2978 18.6955 32.6059 18.7206 31.5546C18.8027 28.2831 18.7508 25.0082 18.7508 21.5923C19.0688 21.7166 19.3082 21.8089 19.5476 21.9047C25.3716 24.239 31.1938 26.5818 37.0278 28.891C37.3409 29.0153 37.7962 28.9716 38.121 28.8423C43.9784 26.5146 49.8258 24.1618 55.6749 21.8156C55.8239 21.7535 55.9812 21.7048 56.2558 21.6091Z"/>
            <path d="M23.6992 39.4194C20.2088 39.4194 16.5829 39.4026 12.9569 39.4244C10.2734 39.4395 8.1926 41.5388 8.20767 44.157C8.22274 46.6089 10.1613 48.6645 12.6054 48.8106C12.9385 48.8308 13.275 48.8224 13.6098 48.8224C30.099 48.8224 46.5899 48.8224 63.0791 48.8241C63.4139 48.8241 63.7521 48.8022 64.0818 48.8459C64.9908 48.9668 65.6521 49.7545 65.6236 50.6462C65.5952 51.5095 64.9356 52.2249 64.0534 52.3357C63.8609 52.3592 63.6633 52.3525 63.4675 52.3525C46.6702 52.3525 29.8747 52.3609 13.0774 52.3475C8.24952 52.3441 4.58004 48.6091 4.6922 43.8816C4.79264 39.6444 8.24282 36.0773 12.4681 35.9111C14.3062 35.8389 16.151 35.8842 17.9924 35.896C18.2251 35.8976 18.4896 35.9749 18.6838 36.1008C20.3796 37.2076 22.062 38.3328 23.6992 39.4194Z"/>
            <path d="M56.6225 41.7672C56.368 43.277 56.1437 44.6843 55.8809 46.0816C55.8524 46.2327 55.6214 46.4007 55.4523 46.4561C55.2498 46.5216 55.0104 46.4729 54.7877 46.4729C41.0305 46.4729 27.275 46.4729 13.5178 46.4695C13.1294 46.4695 12.7277 46.483 12.3543 46.3956C11.2428 46.1353 10.4828 45.084 10.5548 43.979C10.6301 42.8336 11.5491 41.8898 12.7126 41.7772C12.9068 41.7588 13.1026 41.7672 13.2985 41.7672C27.4457 41.7672 41.593 41.7672 55.7402 41.7672C55.9863 41.7672 56.2358 41.7672 56.6225 41.7672Z"/>
            <path d="M60.4759 32.8528C61.5774 32.8528 62.5952 32.8528 63.7554 32.8528C64.3664 36.5156 64.9941 40.2758 65.6286 44.083C63.2649 44.083 60.958 44.083 58.6094 44.083C59.2388 40.2926 59.8616 36.5475 60.4759 32.8528Z"/>
            <path d="M62.145 24.7228C63.7672 24.7379 65.0528 26.0562 65.0377 27.6886C65.0244 29.3277 63.7253 30.6058 62.0898 30.5923C60.466 30.5789 59.1736 29.2589 59.1903 27.6332C59.2071 26.0092 60.5279 24.7077 62.145 24.7228Z"/>
            <path d="M57.6218 35.7062C57.4109 36.9691 57.2753 37.9599 57.0593 38.9323C57.0158 39.1288 56.6777 39.3925 56.4701 39.3958C54.7207 39.4328 52.968 39.4177 50.9792 39.4177C51.3258 39.2212 51.4848 39.1372 51.6388 39.0415C53.1254 38.1229 54.6019 37.1857 56.1035 36.294C56.517 36.0521 57.0058 35.9396 57.6218 35.7062Z"/>
        </g>
    </symbol>
   
</svg>